<?xml version="1.0" encoding="utf-8"?>
<!-- Generator: Adobe Illustrator 23.1.0, SVG Export Plug-In . SVG Version: 6.00 Build 0)  -->
<svg version="1.1" id="a0f752ea-7802-4b2f-97ae-90aebf84c2db"
	 xmlns="http://www.w3.org/2000/svg" xmlns:xlink="http://www.w3.org/1999/xlink" x="0px" y="0px" viewBox="0 0 878.5 701.3"
	 style="enable-background:new 0 0 878.5 701.3;" xml:space="preserve">
<style type="text/css">
	.st0{fill:#FFC107;}
	.st1{fill:#F2F2F2;}
	.st2{fill:none;stroke:#3F3D56;stroke-miterlimit:10;}
	.st3{fill:none;stroke:#FFFFFF;stroke-width:4;stroke-miterlimit:10;}
	.st4{fill:#57B894;}
	.st5{fill:#FFDEA4;}
	.st6{opacity:0.1;enable-background:new    ;}
	.st7{fill:#3F3D56;}
</style>
<title>content creator</title>
<rect x="43" y="97.5" class="st0" width="186" height="151"/>
<rect x="43" y="294.5" class="st1" width="515" height="16"/>
<rect x="30" y="88.5" class="st2" width="186" height="151"/>
<rect x="303" y="139" class="st1" width="180" height="16"/>
<rect x="303" y="182" class="st1" width="255" height="16"/>
<rect x="290" y="130" class="st2" width="180" height="16"/>
<rect x="290" y="173" class="st2" width="255" height="16"/>
<rect x="30" y="285.5" class="st2" width="515" height="16"/>
<rect x="43" y="344.5" class="st1" width="515" height="16"/>
<rect x="30" y="335.5" class="st2" width="515" height="16"/>
<rect x="43" y="394.5" class="st1" width="515" height="16"/>
<rect x="30" y="385.5" class="st2" width="515" height="16"/>
<rect x="43" y="444.5" class="st1" width="515" height="16"/>
<rect x="30" y="435.5" class="st2" width="515" height="16"/>
<rect x="43" y="494.5" class="st1" width="515" height="16"/>
<rect x="30" y="485.5" class="st2" width="515" height="16"/>
<rect x="43" y="544.5" class="st1" width="515" height="16"/>
<rect x="30" y="535.5" class="st2" width="515" height="16"/>
<rect x="7.5" y="5.5" class="st3" width="587" height="648"/>
<path class="st4" d="M811.9,578.7c10.6,3.8,22.3-1.6,26.1-12.2s-1.6-22.3-12.2-26.1c-3.6-1.3-7.5-1.6-11.2-0.8l0.5,10.5l-5-9
	c-4.9,2.3-8.6,6.4-10.5,11.5c-0.6,1.8-1,3.6-1.2,5.5C797.8,567.2,803.3,575.6,811.9,578.7z"/>
<path class="st2" d="M836.4,700.4c-1.8-8.9,5.8-16.8,13.3-22s16.3-10.2,18.8-18.9c3.7-12.5-7.3-24-15.8-33.9
	c-6.3-7.3-11.8-15.4-16.2-24c-1.9-3.4-3.2-7.1-3.9-10.9c-0.7-5.6,1.1-11.1,2.9-16.4c6-17.7,12.4-35.2,19.2-52.5"/>
<path class="st2" d="M812.7,576c10.6,3.8,22.3-1.6,26.1-12.2s-1.6-22.3-12.2-26.1c-3.6-1.3-7.5-1.6-11.2-0.8l0.5,10.5l-5-9
	c-4.9,2.3-8.6,6.4-10.5,11.5c-0.6,1.8-1,3.6-1.2,5.5C798.7,564.5,804.1,572.9,812.7,576z"/>
<path class="st4" d="M833.9,518.1c2.4-6.5,7.9-11.4,14.7-12.9l1.7,10l3.1-10.5c11.3,0.2,20.2,9.4,20.1,20.7
	c-0.2,11.3-9.4,20.2-20.7,20.1c-11.3-0.2-20.2-9.4-20.1-20.7C832.7,522.4,833.2,520.2,833.9,518.1L833.9,518.1z"/>
<path class="st2" d="M835,514.5c2.4-6.5,7.9-11.4,14.7-12.9l1.7,10l3.1-10.5c11.3,0.2,20.2,9.4,20.1,20.7
	c-0.2,11.3-9.4,20.2-20.7,20.1c-11.3-0.2-20.2-9.4-20.1-20.7C833.9,518.8,834.3,516.6,835,514.5z"/>
<path class="st4" d="M849.2,625.8c10.6,3.8,22.3-1.6,26.1-12.2c3.2-8.9-0.1-18.9-8.1-24l-2.4,8l-1.7-10.1c0,0,0,0-0.1,0
	c-10.6-3.9-22.3,1.6-26.1,12.2C833.1,610.2,838.6,621.9,849.2,625.8L849.2,625.8L849.2,625.8z"/>
<path class="st2" d="M850.2,622.2c10.6,3.8,22.3-1.6,26.1-12.2c3.2-8.9-0.1-18.9-8.1-24l-2.4,8l-1.7-10.1c0,0,0,0-0.1,0
	c-10.6-3.8-22.3,1.6-26.1,12.2C834.1,606.6,839.6,618.3,850.2,622.2L850.2,622.2L850.2,622.2z"/>
<path class="st4" d="M828,659.7c1.9,11.1,12.5,18.5,23.6,16.5c11.1-1.9,18.5-12.5,16.5-23.6s-12.5-18.5-23.6-16.5
	c-5,0.9-9.5,3.6-12.6,7.6l9.1,13.7l-12.4-7.3C827.6,653.2,827.4,656.5,828,659.7z"/>
<path class="st2" d="M828.8,657c1.9,11.1,12.5,18.5,23.6,16.5c11.1-1.9,18.5-12.5,16.5-23.6s-12.5-18.5-23.6-16.5
	c-5,0.9-9.5,3.6-12.6,7.6l9.1,13.7l-12.4-7.3C828.5,650.5,828.2,653.8,828.8,657z"/>
<path class="st5" d="M588,235c0,0,12.5,26.5,10.5,34.5c-1.2,4.9-0.6,10,1.5,14.5l23-1l21.5-20.5c0,0-32.5-22.5-30.5-33.5
	S588,235,588,235z"/>
<path class="st0" d="M646,277l10,62c0,0,0,56-3,57s-16,0-16,0v-63l4-55L646,277z"/>
<path class="st6" d="M646,277.8l10,62c0,0,0,56-3,57s-16,0-16,0v-63l4-55L646,277.8z"/>
<polygon class="st5" points="706,641 714,672 726,663 737,638 723,621 "/>
<path class="st7" d="M737,634c0,0-13,10-13,20c0,0-7,11-15,10v21c0,0-25,13-6,16s33-21,33-21s18-29,15-33S737,634,737,634z"/>
<path class="st7" d="M645.9,391.3c0,0,19.1,20.7,10.1,52.7c0,0-10,72,22,99s53,86,53,86l-24,22c0,0-26-59-53-82s-30-49-30-49v-91
	l-5-38L645.9,391.3z"/>
<path class="st6" d="M645.9,391.3c0,0,19.1,20.7,10.1,52.7c0,0-10,72,22,99s53,86,53,86l-24,22c0,0-26-59-53-82s-30-49-30-49v-91
	l-5-38L645.9,391.3z"/>
<polygon class="st5" points="621,664 611,675 615,684 627,688 648,680 645,668 "/>
<path class="st7" d="M651,675c0,0-24,12-30,7c-3.5-2.8-5.7-6.9-6-11.4c0,0-12,1.4-20,6.4s-14,11-24,11s-6,12,13,13s67-1,67-6V675z"
	/>
<path class="st7" d="M583,404c0,0-13,58,10,124c0,0,11,37,16,48s10,89,8,92c0,0,16,13,30,4c0,0-1-46,1-50s4-39-8-68s-2-99-2-99
	s24-36,6-57L583,404z"/>
<circle class="st5" cx="598" cy="214" r="28"/>
<path class="st0" d="M650,397c0,0-8,12-14,6c-4.2-4.2-31.3,5-46.9,10.8c-6.5,2.4-11.1,4.3-11.1,4.3s-0.4-13.9-1.7-31.4
	c-1.5-20.1-4-45.2-8.3-59.6c-8-27,12-38,12-38s17-20,16-23s45-18,45-18c5,1,9,46,9,46s-9,36-14,58S650,397,650,397z"/>
<path class="st5" d="M564,398c0,0-22,22-33,28s-17,26-8,30s29-22,29-22l29-24L564,398z"/>
<path class="st7" d="M568.2,197.3c-2.6,0.2-4,3.4-3.2,5.9s3.2,4,5.6,4.9s5,1.1,7.4,2s4.7,2.2,6.6,3.8c6.9,5.7,11,14.3,12.3,23.1
	s0,17.9-2.5,26.5c-1.3,4.6-3.4,9.5-7.9,11.2c4.9-1.2,9.6-2.8,14.2-4.8c3.4-1.6,6.5-3.6,9.9-5.1c5-2.1,10.3-3.4,15.7-4.1
	c3.8-0.6,7.8-1,11.3,0.4c2.2,1,4.2,2.4,5.9,4l11.4,9.6c0.2-4.2,0.3-8.4,0.4-12.5c0.1-3.6,0-7.4-1.3-10.8c-1.3-3.3-3.8-6.1-5.5-9.2
	c-4.2-7.8-2.8-17.3-2.7-26.2c0.1-9.2-1.4-18.6-5.7-26.7s-11.5-15-20.4-17.4c-11.9-3.3-24.5,1.6-35.5,7.3c-2.6,1.2-5,2.8-7.2,4.7
	c-2.3,2.4-4.3,5-5.8,7.9l-5.4,9.1"/>
<path class="st6" d="M639,304c0,0-19,72-21,77c-1.4,3.6-18.4,22.7-28.9,32.8c-6.5,2.4-11.1,4.3-11.1,4.3s-0.4-13.9-1.7-31.4
	c8.1-9,16.7-17.6,16.7-17.6s9-55,8-76s20-26,20-26C645,270,639,304,639,304z"/>
<path class="st0" d="M618,263c0,0-21,5-20,26s-8,76-8,76s-34,34-31,38s15.9,11.9,18.9,12.9S613,382,615,377s21-77,21-77
	S642,266,618,263z"/>
<line class="st2" x1="509.5" y1="700.5" x2="878.5" y2="700.5"/>
</svg>
