<?xml version="1.0" encoding="utf-8"?>
<!-- Generator: Adobe Illustrator 23.1.0, SVG Export Plug-In . SVG Version: 6.00 Build 0)  -->
<svg version="1.1" id="Layer_1" xmlns="http://www.w3.org/2000/svg" xmlns:xlink="http://www.w3.org/1999/xlink" x="0px" y="0px"
	 viewBox="0 0 1084.2 758.6" style="enable-background:new 0 0 1084.2 758.6;" xml:space="preserve">
<style type="text/css">
	.st0{display:none;opacity:0.84;fill:#FFC107;}
	.st1{display:none;fill:#FFC107;enable-background:new    ;}
	.st2{fill:#AAABB0;}
	.st3{fill:#33323D;}
	.st4{fill:#444053;}
	.st5{fill:#4C4981;}
	.st6{fill:#FFB9B9;}
	.st7{fill:#504F60;}
	.st8{opacity:0.1;enable-background:new    ;}
	.st9{fill:#AE6E79;}
	.st10{fill:#767D9F;}
	.st11{fill:#FFFFFF;}
	.st12{fill:#FFC107;}
	.st13{fill:#B96B6B;}
	.st14{opacity:0.1;}
	.st15{fill:#464A5F;}
	.st16{fill:#9C9CA1;}
	.st17{fill:#939498;}
</style>
<title>interview</title>
<rect x="50.6" y="11.8" class="st0" width="965.2" height="732.3"/>
<path class="st1" d="M588.2,727.3c44.1,16.8,84.5,10.3,132.1,8.5c69.9-2.6,59.1-40.6,92-98.4c27.9-48.9-7-98,5-152.3
	c14.8-66.9,31.7-159.4,62-221.6c16.3-33.4,2.3-100.6,5-137.2c-15-45.9,1.6-11.4-11-52.5c-15.5-50.6-8.7-35.1-63-39
	c-28.9-2.1-32.4-26.5-58-13.9c-27.2,13.3-61.7,8.8-89,21.9c-25.3,12.2-44.5,5.6-73,4c-37-2.1-69,27.6-104.1,15.3
	c-39.6-14-76.5-34.1-116-48.2s-45.5,41.2-86,52.9c-38,11.1-6,32.3-33,59.5c-20.5,75.8-33.5,57.1-94,73.8
	c-24.4,34.2,0.8,67.8-10,107.7c-20.6,76.2-102,154.1-39,206.2c52.2,43.1,56.7,84.7,125.3,96c62.5,10.4,134.8,11,192.4,38
	C480.7,673.6,530.7,705.4,588.2,727.3z"/>
<polygon class="st2" points="546.9,168.9 546.9,140.3 538.7,140.3 540.3,171 "/>
<polygon class="st2" points="669.2,174.7 669.2,146 661,146 662.6,176.8 "/>
<path class="st2" d="M532.2,222L532.2,222c-2.9,0-5.3-2.4-5.3-5.3v-40.5c0-2.9,2.4-5.3,5.3-5.3l0,0c2.9,0,5.3,2.4,5.3,5.3v40.5
	C537.4,219.6,535.1,222,532.2,222z"/>
<path class="st2" d="M666.9,233.3L666.9,233.3c-2.9,0-5.3-2.4-5.3-5.3v-51.7c0-2.9,2.4-5.3,5.3-5.3l0,0c2.9,0,5.3,2.4,5.3,5.3V228
	C672.2,230.9,669.8,233.3,666.9,233.3z"/>
<path class="st2" d="M513.5,527c0,0-10.5,4.5-12.1,0s-2.4-43.1-2.4-43.1h10L513.5,527z"/>
<path class="st2" d="M628.6,527c0,0,10.5,4.5,12.1,0s2.4-43.1,2.4-43.1h-10L628.6,527z"/>
<polygon class="st2" points="627,565.3 628.6,533.3 621.5,533.3 621.5,566.1 "/>
<path class="st3" d="M633,483.9l-2.1,46.2c0,0,0.8,10.2-24.2,7.1c-25-3.2-98-9.5-98-9.5v-43.9H633V483.9z"/>
<path class="st3" d="M533.2,240.4l3.9-70.7c0,0,57.8-32.1,127.9-1.6l-6.3,74.3L533.2,240.4z"/>
<polygon class="st4" points="588.1,518.6 586.8,472.9 505.4,472.9 510.1,533.3 "/>
<rect x="579.8" y="173.4" class="st5" width="76.7" height="97.2"/>
<path class="st6" d="M608.1,230.9c0,0-11,8.7-12.9,6c-1.8-2.6,6.6-13.9,10-12.6S608.1,230.9,608.1,230.9z"/>
<rect x="301.8" y="234.3" class="st7" width="503.6" height="252.2"/>
<path class="st3" d="M632.8,567.2c0,0,3.9,36.8,0,41.2c-3.9,4.5-70.1,46.8-131.4-2.9c0,0-5.8-0.3-4.7-13.4c0.6-8.3,0.6-16.7-0.1-25
	C496.6,567.2,628.3,557.7,632.8,567.2z"/>
<path class="st8" d="M632.8,567.2c0,0,3.9,36.8,0,41.2c-3.9,4.5-70.1,46.8-131.4-2.9c0,0-5.8-0.3-4.7-13.4c0.6-8.3,0.6-16.7-0.1-25
	C496.6,567.2,628.3,557.7,632.8,567.2z"/>
<path class="st3" d="M632.8,562.4c0,0,3.9,36.8,0,41.2s-70.1,46.8-131.4-2.9c0,0-5.8-0.3-4.7-13.4c0.6-8.3,0.6-16.7-0.1-25
	C496.6,562.4,628.3,553,632.8,562.4z"/>
<path class="st5" d="M494.3,579.3c0,0-4.2-15.8-2.9-18.4s1.1-10,1.1-10s-0.3-4.7,1.8-5.2c2.1-0.5,3.9-0.8,2.2-2.4s0-3.9,0-3.9
	s0.9-3.7,0-6c-0.9-2.4,5.4-3.3,4.9-6.3s-2.3-11.3,0-11.6s-0.8-10.5,1.3-10.5s3.5-18.4,3.5-18.4s14.6,12.3,24.3,8.9
	c0,0-0.8,10.2-3.9,13.9c-3.2,3.7-2.2,13.1-2.2,13.1l-15.6,47L494.3,579.3z"/>
<path class="st9" d="M572.4,361.9c3.4-3.8,7.1,16.4,7.1,16.4s9.7-13.4,16-4.5c4.4,6.2,0.9,23.7-1.6,33.9c-1.1,4.5-2.1,7.6-2.1,7.6
	l-14.2,2.4c0,0,0-3.1-0.4-6.8c-0.4-5.1-1.3-11.4-3.3-12.9C570.5,395.4,568.9,365.7,572.4,361.9z"/>
<path class="st8" d="M579.7,597.9c0,0,24.7,0.3,30.7-12.9c6-13.1,6.3-17.6,8.7-19.7c2.4-2.1-25.7-13.1-25.7-13.1l-1.3-45.2
	c0,0-5.5,5.6-14.4,3.1c-8.9-2.5-20.2,0-20.2,0s0.5,1-6.8,0c-7.4-1-30.7,11.4-30.7,11.4s-0.4,19.8,0.1,24s-16.7,35.1-16.7,35.1
	s-13.4,12.9,0.5,17.3c0,0,4.9,7.4,17.6,7.4C534.1,605.2,579.7,597.9,579.7,597.9z"/>
<path class="st5" d="M579.7,598.7c0,0,24.7,0.3,30.7-12.9c6-13.1,6.3-17.6,8.7-19.7c2.4-2.1-25.7-13.1-25.7-13.1l-1.3-45.2
	c0,0-5.5,5.6-14.4,3.1c-8.9-2.5-20.2,0-20.2,0s0.5,1-6.8,0c-7.4-1-30.7,11.4-30.7,11.4s-9.2,15-8.7,19.2s-18.4,36-18.4,36
	s-2.9,16.8,11,21.3c0,0,4.9,7.4,17.6,7.4C534.1,606,579.7,598.7,579.7,598.7z"/>
<path class="st8" d="M577.2,410.8c5.4,1.7,13.9-2,16.6-3.2c-1.1,4.5-2.1,7.6-2.1,7.6l-14.2,2.4C577.6,417.7,577.6,414.6,577.2,410.8
	z"/>
<path class="st5" d="M611.5,566.1h7.6c0,0,1.6-16,0-20.8c-1.6-4.7-2.4-4-1.8-7.5c0.5-3.5-3.7-8.9-3.7-8.9s-0.5-13.2-3.2-18.1
	c-2.6-4.9,2.9-27,2.9-27c-1.5-3.8-3.7-7.3-6.6-10.2c-4.5-4.5-6.8-21-5.5-27.3s-3.7-8.7-3.7-8.7s-2.1-29.4-2.9-29.4
	c-0.8,0-16,7.9-20.8,1.1l3.7,27.1l-0.3,52.3c0,0,5,6.6,2.4,12.4s2.1,19.4,2.1,19.4l6.8,30.5L611.5,566.1z"/>
<path class="st3" d="M658.8,150.8c0,0,11,2.4,11.3,0s13.1-26.5-2.9-33.6s-58.8-22.3-128.5-2.6c0,0-4.5-1.6-3.4,8.1
	c1,9.7,1,20.5,1,20.5s10.5,2.9,18.4,1.8C562.6,143.9,631.2,130,658.8,150.8z"/>
<path class="st8" d="M658.8,150.8c0,0,11,2.4,11.3,0s13.1-26.5-2.9-33.6s-58.8-22.3-128.5-2.6c0,0-4.5-1.6-3.4,8.1
	c1,9.7,1,20.5,1,20.5s10.5,2.9,18.4,1.8C562.6,143.9,631.2,130,658.8,150.8z"/>
<path class="st3" d="M658.8,153.9c0,0,11,2.4,11.3,0s13.1-26.5-2.9-33.6s-58.8-22.3-128.5-2.6c0,0-4.5-1.6-3.4,8.1
	c1,9.7,1,20.5,1,20.5s10.5,2.9,18.4,1.8S631.2,133.2,658.8,153.9z"/>
<path class="st4" d="M594.4,556.7c0.7-3.9,2.2-7.6,2.5-11.5c0.2-3.9-1.3-8.3-4.9-9.9c-1-0.3-2-0.7-2.9-1.2c-1.4-0.9-2-2.7-2.2-4.4
	c-0.4-2.1-0.5-4.3-0.3-6.5s0.7-4.5-0.4-6.4c-1.9-3.4-6.8-2.9-10.5-1.9l1.3-10c0.1-0.8,0.2-1.7-0.4-2.2c-0.5-0.4-1.2-0.5-1.9-0.4
	c-3.2,0.2-6.6,0.7-9.4,2.4c-2.8,1.7-4.9,4.9-4.3,8.1c0.6,3.7,4.5,6.7,3.9,10.4c-0.4,2.9-3.2,4.7-5.1,7c-3.4,4.1-3.5,10.2-0.9,14.8
	s7.7,7.5,13,8c2.9,0.3,5.9-0.1,8.7,0.9c1.9,0.7,3.4,2.3,4,4.2"/>
<path class="st10" d="M686.1,206.2l-2.8,6c0,0-14.8,13.8-18.3,14.8c-3.4,1-17.3,5.2-19.4,5.2s-40.5,2.1-40.5,2.1l-4.5-10.5
	l48.1-10.6l16.2-11.8L686.1,206.2z"/>
<path class="st6" d="M570.5,367.5l2.5-19.3l1-7.4l11.3-1.6c0,0,1.2,2.6,2.9,6.6c5.2,12.2,15.1,37.4,9.4,41.7
	c-7.6,5.8-9.5-13.4-9.5-13.4l-8.7,4.2L570.5,367.5z"/>
<rect x="572.3" y="245.3" class="st11" width="57" height="86.2"/>
<rect x="572.3" y="245.3" class="st8" width="57" height="86.2"/>
<rect x="538.1" y="260" transform="matrix(0.1463 -0.9892 0.9892 0.1463 210.8385 821.2172)" class="st11" width="86.2" height="57"/>
<rect x="564.4" y="288.3" transform="matrix(0.1463 -0.9892 0.9892 0.1463 201.0039 838.9305)" class="st12" width="44.3" height="29.4"/>
<rect x="585.8" y="245.6" transform="matrix(0.1463 -0.9892 0.9892 0.1463 243.609 809.1084)" class="st12" width="9.6" height="35.6"/>
<circle class="st8" cx="557.4" cy="581.9" r="33"/>
<circle class="st9" cx="557.4" cy="582.7" r="33"/>
<path class="st4" d="M584.6,558.2c0.2,0.8,0.1,1.8-0.2,2.5c-1.3,2.6-4.8,2.8-7.7,2.7c-6.8-0.3-14.3-0.4-19.6,3.9
	c-2.2,1.8-4.7,6.2-7.9,5.4c-2.9-0.7-4-4.6-7-5.5c-2.2-0.6-4.4,0.4-6.6,0.8c-3.2,0.6-6.4,0.1-9.6,0.1c-3.2,0-6.7,0.6-8.9,2.9
	c-2.9,3.2-2.5,8.1-2.2,12.4c0.3,5.6-0.1,11.2-1.1,16.7c-1.1,5.5-2.7,11.6,0.3,16.2c2.9,4.5,8.8,5.7,12.9,9.1
	c3.8,3.2,5.8,8.2,9.8,11.1c5.1,3.7,11.9,3.2,18.1,2.5l13.5-1.4c3.5-0.4,7.1-0.8,10-2.9c5.2-3.7,5.9-11.5,10.8-15.6
	c2.2-1.8,5-2.7,7.4-4.1s4.9-3.5,5.2-6.3c0.2-2.4-1-4.5-1.7-6.8c-1.5-5.4,0.8-11,2.3-16.5s1.8-12.1-2.5-15.8
	c-0.9-0.7-1.9-1.3-2.7-2.1c-2.9-2.6-3.3-7.1-2.6-10.9"/>
<ellipse class="st4" cx="554.7" cy="543.5" rx="0.8" ry="2"/>
<ellipse class="st4" cx="554.7" cy="535.2" rx="0.8" ry="2"/>
<path class="st9" d="M572.2,362c-0.8,1-1.4,3.5-1.7,6.7l9.4,11.7C579.8,380.4,575.9,357.7,572.2,362z"/>
<path class="st8" d="M561.6,168.4c0,0,15.4-23.8,63.6-21.3c45.4,2.4,67.5,24.7,66.5,32.6c-1.1,7.9,2.9,27.1-6.8,32.6
	c-5.6,3.2-13.1,1.3-18.3-0.9c-3.7-1.5-7.9-0.7-10.9,1.9c-4.8,4.3-13.7,9.2-27.8,5.3c-1.8-0.5-3.7-0.4-5.5,0.1
	c-5.9,1.8-19.8,4.9-29.9-2c-3.3-2.3-7.5-2.4-11-0.4l-0.1,0.1c-4.7,2.9-26.8-24.4-26.8-24.4S553.4,171,561.6,168.4z"/>
<path class="st10" d="M561.6,167.6c0,0,15.4-23.8,63.6-21.3c45.4,2.4,67.5,24.7,66.5,32.6c-1.1,7.9,2.9,27.1-6.8,32.6
	c-5.6,3.2-13.1,1.3-18.3-0.9c-3.7-1.5-7.9-0.7-10.9,1.9c-4.8,4.3-13.7,9.2-27.8,5.3c-1.8-0.5-3.7-0.4-5.5,0.1
	c-5.9,1.8-19.8,4.9-29.9-2c-3.3-2.3-7.5-2.4-11-0.4l-0.1,0.1c-4.7,2.9-26.8-24.4-26.8-24.4S553.4,170.2,561.6,167.6z"/>
<ellipse transform="matrix(0.9239 -0.3827 0.3827 0.9239 -24.9597 253.6875)" class="st8" cx="625.2" cy="189.6" rx="31.4" ry="31.4"/>
<ellipse transform="matrix(0.9239 -0.3827 0.3827 0.9239 -24.6867 253.6466)" class="st6" cx="625.2" cy="188.9" rx="31.4" ry="31.4"/>
<path class="st13" d="M634.2,216c3.3-0.9,6.5-2.6,8.1-5.4c1-1.7,1.3-3.7,2.7-5.1c2-2,5.3-2,8-3.2c2.7-1.1,4.5-5.1,1.8-6.3
	c2.7-0.1,4.8-2.7,5.1-5.2s-0.6-5-1.5-7.4c-3-7.8-6.3-15.8-12.9-21.4c-10.8-9-27.1-8.6-41.6-7.6c-1.2,0-2.4,0.2-3.4,0.8
	c-1.6,1-1.8,3-2,4.8c-1.1,7.5-5.1,14.3-7.8,21.4s-3.7,15.5,0.7,21.8C598,212.6,623.1,219,634.2,216z"/>
<path class="st8" d="M573,348.2l1-7.4l11.3-1.6c0,0,1.2,2.6,2.9,6.6l-15,2.8L573,348.2z"/>
<path class="st10" d="M561.1,183.6l-6.6,7.6l1.3,42c-0.6,3-1.1,6.1-1.3,9.2c-0.3,4.5,3.3,14.4,3.3,14.4c-0.6,2-1.3,3.9-2.2,5.8
	c-1.6,3.2,2.2,10.2,2.2,10.2s5.7,18.4,3.3,27.6s0.6,14.4,0.6,14.4s2.3,10.2,2,14.4c-0.3,4.2,5.3,8.1,5.3,8.1l4.2,10.2l16.8-3.2
	v-35.5c0,0-1-33.9,0-40.5s-2.1-12.9-2.1-12.9s1.8-9.7,0.3-13.4c-1.6-3.7-4.7-12.6-4.7-12.6c0.6-3.2,0.4-6.5-0.5-9.6
	c-1.6-4.6,0-7.2,0-7.2L561.1,183.6z"/>
<g class="st14">
	<path d="M513.8,602.8c0.9-4.6,1.3-9.3,1.2-14c-0.1,3.9-0.5,7.8-1.2,11.6c-0.7,3.5-1.6,7.3-1.4,10.8
		C512.6,608.3,513.1,605.5,513.8,602.8z"/>
	<path d="M597.1,570.2c0.8,0.8,1.9,1.3,2.7,2.1c2.3,2,3.3,4.8,3.5,7.9c0.2-3.9-0.6-7.8-3.5-10.2c-0.9-0.7-1.9-1.3-2.7-2.1
		c-1.8-1.7-2.8-4.1-2.9-6.6C594,564.6,594.7,568,597.1,570.2z"/>
	<path d="M599.6,599.6c-0.1,1.7,0,3.3,0.4,5c0.5,1.7,1.3,3.3,1.6,5c0-0.2,0.1-0.4,0.1-0.6c0.2-2.4-1-4.5-1.7-6.8
		C599.8,601.4,599.6,600.5,599.6,599.6z"/>
	<path d="M517.1,573.7c2.2-2.4,5.7-2.9,8.9-2.9s6.4,0.5,9.6-0.1c2.2-0.4,4.4-1.4,6.6-0.8c3,0.9,4.2,4.7,7,5.5
		c3.2,0.9,5.7-3.6,7.9-5.4c5.3-4.3,12.8-4.2,19.6-3.9c2.9,0.1,6.5-0.1,7.7-2.7c0.4-0.8,0.5-1.7,0.2-2.5l9.6-1.5
		c0-0.8,0.1-1.6,0.3-2.4l-9.9,1.6c0.2,0.8,0.2,1.8-0.2,2.5c-1.2,2.6-4.8,2.8-7.7,2.7c-6.8-0.3-14.3-0.4-19.6,3.9
		c-2.2,1.8-4.7,6.2-7.9,5.4c-2.8-0.7-4-4.6-7-5.5c-2.2-0.6-4.4,0.4-6.6,0.8c-3.2,0.6-6.4,0.1-9.6,0.1c-3.2,0-6.7,0.6-8.9,2.9
		c-2.2,2.3-2.5,5.8-2.4,9.2C514.8,578,515.4,575.5,517.1,573.7z"/>
</g>
<g class="st14">
	<path d="M590.1,535.8c0.9,0.5,1.9,0.9,2.9,1.2c1.7,0.8,3.1,2.2,3.8,3.9c-0.6-2.7-2.1-5.2-4.6-6.3c-1-0.3-2-0.7-2.9-1.2
		c-0.6-0.4-1.1-1-1.4-1.6C588.2,533.4,588.8,535,590.1,535.8z"/>
	<path d="M576.6,516.7c3.6-0.9,8.4-1.4,10.4,1.7c-0.1-0.7-0.3-1.5-0.6-2.1c-1.7-3-5.9-2.9-9.4-2.2L576.6,516.7z"/>
	<path d="M561.9,514.5c-0.5-3.2,1.6-6.4,4.3-8.1c2.8-1.7,6.1-2.1,9.4-2.4c0.5-0.1,1,0,1.5,0.2c0.4-0.9,0-2.1-1-2.5
		c-0.4-0.2-0.9-0.2-1.4-0.1c-3.2,0.2-6.6,0.7-9.4,2.4c-2.8,1.7-4.9,4.9-4.3,8.1C561.2,513,561.5,513.8,561.9,514.5z"/>
	<path d="M558.4,543c-1-3.9-0.1-8,2.4-11.2c1.9-2.3,4.7-4.1,5.1-7c0.1-1.3-0.1-2.7-0.8-3.8c0.1,0.5,0.1,1,0,1.5
		c-0.4,2.9-3.2,4.7-5.1,7C556.9,533.2,556.5,538.7,558.4,543z"/>
</g>
<g class="st14">
	<path d="M653,201.1c-2.7,1.1-6,1.2-8,3.2c-1.4,1.4-1.7,3.4-2.7,5.1c-1.6,2.8-4.8,4.5-8.1,5.4c-11,3-36.2-3.4-42.7-12.7
		c-1.9-2.8-3-6.1-3-9.5c-0.3,3.9,0.8,7.8,3,11.1c6.6,9.3,31.7,15.7,42.7,12.7c3.3-0.9,6.5-2.6,8.1-5.4c1-1.7,1.3-3.7,2.7-5.1
		c2-2,5.3-2,8-3.2c2-0.8,3.6-3.3,3-5C655.6,199.2,654.5,200.5,653,201.1z"/>
	<path d="M660,189.7c-0.3,2.5-2.4,5-5.1,5.2c0.6,0.2,1,0.7,1.2,1.3c2.1-0.8,3.6-2.7,3.9-5c0.1-0.6,0.1-1.3,0-1.9
		C660,189.4,660,189.6,660,189.7z"/>
</g>
<rect x="493" y="381.8" class="st11" width="71.7" height="93.5"/>
<rect x="493" y="381.8" class="st8" width="71.7" height="93.5"/>
<rect x="457.2" y="370.9" transform="matrix(0.9855 -0.1695 0.1695 0.9855 -63.6588 89.6146)" class="st11" width="71.7" height="93.5"/>
<rect x="500.6" y="374.4" transform="matrix(0.9855 -0.1695 0.1695 0.9855 -57.9602 91.8592)" class="st12" width="16.9" height="22"/>
<rect x="477.6" y="378.4" transform="matrix(0.9855 -0.1695 0.1695 0.9855 -58.9713 88.0199)" class="st12" width="16.9" height="22"/>
<rect x="461.1" y="406.4" transform="matrix(0.9856 -0.1692 0.1692 0.9856 -63.561 89.0338)" class="st12" width="59.1" height="22.1"/>
<rect x="467.4" y="449.4" transform="matrix(0.9856 -0.1692 0.1692 0.9856 -69.291 90.5952)" class="st12" width="59.1" height="4.9"/>
<rect x="465.4" y="440.5" transform="matrix(0.9856 -0.1692 0.1692 0.9856 -67.8164 90.1298)" class="st12" width="59.1" height="4.9"/>
<path class="st9" d="M524.4,500.7c0,0,33-33.1,16.4-41.5s-27.3,28-27.3,28l-2.6,8.3L524.4,500.7z"/>
<path class="st8" d="M527.3,503.6l4.1-9c0,0-20.1-2.8-24.3-8.9l2.5,15.9l3,6.8L527.3,503.6z"/>
<path class="st5" d="M526.5,504.4l4.1-9c0,0-20.1-2.8-24.3-8.9l2.5,15.9l3,6.8L526.5,504.4z"/>
<polygon class="st15" points="404.9,338.9 405.3,338.6 404.7,338.4 404,338.4 404,338.9 "/>
<polygon class="st8" points="404.9,338.9 405.3,338.6 404.7,338.4 404,338.4 404,338.9 "/>
<polygon class="st16" points="404.9,338.9 405.3,338.6 405.6,339.1 405.4,339.4 405.2,339.5 "/>
<polygon class="st8" points="404.9,338.9 405.3,338.6 405.6,339.1 405.4,339.4 405.2,339.5 "/>
<path class="st16" d="M327.3,393.4l32.3,46.6c1.2,1.7,3.6,2.2,5.3,1l0,0l71.9-49.4c1.8-1.2,2.2-3.6,1-5.4L405.6,339L327.3,393.4z"/>
<path class="st8" d="M327.3,393.4l32.3,46.6c1.2,1.7,3.6,2.2,5.3,1l0,0l71.9-49.4c1.8-1.2,2.2-3.6,1-5.4L405.6,339L327.3,393.4z"/>
<path class="st16" d="M326.5,393.3l32.3,46.6c1.2,1.7,3.6,2.2,5.3,1l0,0l71.9-49.4c1.8-1.2,2.2-3.6,1-5.4l-32.2-47.2L326.5,393.3z"
	/>
<path class="st15" d="M299.5,384.1l26.8,8.6l78.4-54.3l-27.2-8.9c-1.2-0.4-2.6-0.2-3.6,0.6l-74.5,52.6c-0.4,0.2-0.5,0.7-0.3,1.1
	C299.1,383.9,299.3,384,299.5,384.1z"/>
<path class="st8" d="M299.5,384.1l26.8,8.6l78.4-54.3l-27.2-8.9c-1.2-0.4-2.6-0.2-3.6,0.6l-74.5,52.6c-0.4,0.2-0.5,0.7-0.3,1.1
	C299.1,383.9,299.3,384,299.5,384.1z"/>
<path class="st15" d="M299.7,384.6l26.8,8.6l78.4-54.3l-27.2-8.9c-1.2-0.4-2.6-0.2-3.6,0.5l-74.5,52.6c-0.4,0.2-0.5,0.7-0.3,1.1
	C299.3,384.4,299.5,384.6,299.7,384.6z"/>
<g class="st14">
	<path d="M339.1,395.4l2,2.8c0.2,0.3,0.7,0.4,1.1,0.2l2.9-2c0.3-0.2,0.4-0.7,0.2-1.1l-1.8-2.8c-0.2-0.3-0.7-0.4-1.1-0.2l-3.1,1.9
		C339,394.5,338.9,395,339.1,395.4z"/>
	<path d="M344.4,391.7l2,2.8c0.2,0.3,0.7,0.4,1.1,0.2l2.9-2c0.3-0.2,0.4-0.7,0.2-1.1l-1.8-2.8c-0.2-0.4-0.7-0.5-1.1-0.2l-3.1,1.9
		C344.3,390.8,344.2,391.3,344.4,391.7L344.4,391.7z"/>
	<path d="M350,387.9l2,2.8c0.2,0.3,0.7,0.4,1.1,0.2l2.9-2c0.3-0.2,0.4-0.7,0.2-1.1l-1.8-2.8c-0.2-0.3-0.7-0.4-1.1-0.2l-3.1,1.9
		C349.8,387,349.7,387.5,350,387.9L350,387.9z"/>
	<path d="M355.6,384l2,2.8c0.2,0.3,0.7,0.4,1.1,0.2l2.9-2c0.3-0.2,0.4-0.7,0.2-1.1l-1.8-2.8c-0.2-0.3-0.7-0.4-1.1-0.2l-3.1,2
		C355.5,383.1,355.4,383.6,355.6,384L355.6,384z"/>
	<path d="M361.2,380.1l2,2.8c0.2,0.3,0.7,0.4,1.1,0.2l2.9-2c0.3-0.2,0.4-0.7,0.2-1.1l-1.8-2.8c-0.2-0.4-0.7-0.5-1.1-0.2l-3.1,2
		C361.1,379.2,361,379.7,361.2,380.1L361.2,380.1z"/>
	<path d="M366.6,375.9l2.5,3.5c0.1,0.2,0.3,0.2,0.5,0.1l0,0l3.6-2.4c0.2-0.1,0.2-0.3,0.1-0.5l0,0l-2.3-3.5c-0.1-0.2-0.3-0.2-0.5-0.1
		l-3.8,2.4C366.5,375.4,366.4,375.6,366.6,375.9C366.5,375.8,366.6,375.8,366.6,375.9z"/>
	<path d="M372.2,372l2.5,3.5c0.1,0.2,0.3,0.2,0.5,0.1l0,0l3.6-2.4c0.2-0.1,0.2-0.3,0.1-0.5l-2.3-3.5c-0.1-0.2-0.3-0.2-0.5-0.1l0,0
		l-3.8,2.4C372.1,371.5,372.1,371.7,372.2,372C372.2,371.9,372.2,371.9,372.2,372z"/>
	<path d="M377.2,368.5l2.5,3.5c0.1,0.2,0.3,0.2,0.5,0.1l3.6-2.4c0.2-0.1,0.2-0.3,0.1-0.5l-2.3-3.5c-0.1-0.2-0.3-0.2-0.5-0.1
		l-3.8,2.4C377.1,368.1,377,368.3,377.2,368.5C377.1,368.5,377.1,368.5,377.2,368.5z"/>
	<path d="M382.7,364.7l2.5,3.5c0.1,0.2,0.3,0.2,0.5,0.1l3.6-2.4c0.2-0.1,0.2-0.3,0.1-0.5l0,0l-2.3-3.5c-0.1-0.2-0.3-0.2-0.5-0.1
		l-3.8,2.4C382.6,364.2,382.6,364.5,382.7,364.7L382.7,364.7z"/>
	<path d="M388.1,361l2.5,3.5c0.1,0.2,0.3,0.2,0.5,0.1l0,0l3.6-2.4c0.2-0.1,0.2-0.3,0.1-0.5l0,0l-2.3-3.5c-0.1-0.2-0.3-0.2-0.5-0.1
		l-3.8,2.4C388,360.5,388,360.8,388.1,361C388.1,360.9,388.1,361,388.1,361z"/>
	<path d="M393.5,357.2l2.4,3.5c0.1,0.2,0.3,0.2,0.5,0.1l3.6-2.4c0.2-0.1,0.2-0.3,0.1-0.5l0,0l-2.3-3.5c-0.1-0.2-0.3-0.2-0.5-0.1
		l-3.8,2.4C393.4,356.8,393.4,357,393.5,357.2L393.5,357.2z"/>
	<path d="M398.9,353.5l2.5,3.5c0.1,0.2,0.3,0.2,0.5,0.1l0,0l3.6-2.4c0.2-0.1,0.2-0.3,0.1-0.5l0,0l-2.3-3.5c-0.1-0.2-0.3-0.2-0.5-0.1
		L399,353C398.8,353.1,398.8,353.3,398.9,353.5L398.9,353.5z"/>
	<path d="M342.7,400.5l2,2.8c0.2,0.3,0.7,0.4,1.1,0.2l2.9-2c0.3-0.2,0.4-0.7,0.2-1.1l-1.8-2.8c-0.2-0.3-0.7-0.4-1.1-0.2l-3.1,1.9
		C342.5,399.7,342.4,400.1,342.7,400.5z"/>
	<path d="M350.5,411.7l2,2.9c0.2,0.3,0.7,0.4,1.1,0.2l2.9-2c0.3-0.2,0.4-0.7,0.2-1.1l-1.8-2.8c-0.2-0.4-0.7-0.5-1.1-0.2l-3.1,1.9
		C350.3,410.9,350.2,411.4,350.5,411.7z"/>
	<path d="M348,396.8l2,2.8c0.2,0.3,0.7,0.4,1.1,0.2l2.9-2c0.3-0.2,0.4-0.7,0.2-1.1l-1.8-2.8c-0.2-0.4-0.7-0.5-1.1-0.2l-3.1,1.9
		C347.8,396,347.7,396.5,348,396.8L348,396.8z"/>
	<path d="M353.5,393l2,2.8c0.2,0.3,0.7,0.4,1.1,0.2l2.9-2c0.4-0.2,0.4-0.7,0.2-1.1l-1.8-2.8c-0.2-0.3-0.7-0.4-1.1-0.2l-3.1,1.9
		C353.4,392.2,353.3,392.6,353.5,393z"/>
	<path d="M359.1,389.1l2,2.8c0.2,0.3,0.7,0.4,1.1,0.2l2.9-2c0.3-0.2,0.4-0.7,0.2-1.1l-1.8-2.8c-0.2-0.3-0.7-0.4-1.1-0.2l-3.1,1.9
		C359,388.2,358.9,388.7,359.1,389.1L359.1,389.1z"/>
	<path d="M355.6,407.9l2,2.8c0.2,0.3,0.7,0.4,1.1,0.2l2.9-2c0.3-0.2,0.4-0.7,0.2-1.1L360,405c-0.2-0.4-0.7-0.5-1.1-0.2l-3.1,1.9
		C355.5,407,355.4,407.5,355.6,407.9L355.6,407.9z"/>
	<path d="M361.2,404l2,2.8c0.2,0.3,0.7,0.4,1.1,0.2l2.9-2c0.3-0.2,0.4-0.7,0.2-1.1l-1.8-2.8c-0.2-0.3-0.7-0.4-1.1-0.2l-3.1,1.9
		C361,403.2,360.9,403.7,361.2,404z"/>
	<path d="M366.8,400.1l2,2.8c0.2,0.3,0.7,0.4,1.1,0.2l2.9-2c0.3-0.2,0.4-0.7,0.2-1.1l-1.8-2.8c-0.2-0.4-0.7-0.5-1.1-0.2l-3.1,2
		C366.6,399.3,366.5,399.7,366.8,400.1L366.8,400.1z"/>
	<path d="M364.8,385.2l2,2.8c0.2,0.3,0.7,0.4,1.1,0.2l2.9-2c0.3-0.2,0.4-0.7,0.2-1.1l-1.8-2.8c-0.2-0.3-0.7-0.5-1.1-0.2l-3.1,2
		C364.6,384.4,364.5,384.9,364.8,385.2L364.8,385.2z"/>
	<path d="M370.4,381.3l2,2.8c0.2,0.3,0.7,0.4,1.1,0.2l2.9-2c0.3-0.2,0.4-0.7,0.2-1.1l-1.8-2.8c-0.2-0.4-0.7-0.5-1.1-0.2l-3.1,1.9
		C370.2,380.5,370.1,381,370.4,381.3L370.4,381.3z"/>
	<path d="M375.7,377.1l2.5,3.5c0.1,0.2,0.3,0.2,0.5,0.1l0,0l3.6-2.4c0.2-0.1,0.2-0.3,0.1-0.5l0,0l-2.3-3.5c-0.1-0.2-0.3-0.2-0.5-0.1
		l0,0l-3.8,2.4C375.7,376.7,375.6,376.9,375.7,377.1L375.7,377.1z"/>
	<path d="M380.7,373.7l2.5,3.5c0.1,0.2,0.3,0.2,0.5,0.1l3.6-2.4c0.2-0.1,0.2-0.3,0.1-0.5l-2.3-3.5c-0.1-0.2-0.3-0.2-0.5-0.1
		l-3.8,2.4C380.6,373.2,380.6,373.4,380.7,373.7C380.7,373.6,380.7,373.6,380.7,373.7z"/>
	<path d="M386.3,369.8l2.5,3.5c0.1,0.2,0.3,0.2,0.5,0.1l3.6-2.4c0.2-0.1,0.2-0.3,0.1-0.5l0,0l-2.3-3.5c-0.1-0.2-0.3-0.2-0.5-0.1
		l-3.8,2.4C386.2,369.4,386.1,369.6,386.3,369.8L386.3,369.8z"/>
	<path d="M391.7,366.1l2.5,3.5c0.1,0.2,0.3,0.2,0.5,0.1l0,0l3.6-2.4c0.2-0.1,0.2-0.3,0.1-0.5l0,0l-2.3-3.5c-0.1-0.2-0.3-0.2-0.5-0.1
		l-3.8,2.4C391.6,365.7,391.6,365.9,391.7,366.1L391.7,366.1z"/>
	<path d="M357.2,398.3l2,2.8c0.2,0.3,0.7,0.4,1.1,0.2l2.9-2c0.3-0.2,0.4-0.7,0.2-1.1l-1.8-2.8c-0.2-0.3-0.7-0.4-1.1-0.2l-3.1,1.9
		C357.1,397.5,357,398,357.2,398.3L357.2,398.3z"/>
	<path d="M362.8,394.4l2,2.8c0.2,0.3,0.7,0.4,1.1,0.2l2.9-2c0.3-0.2,0.4-0.7,0.2-1.1l-1.8-2.8c-0.2-0.4-0.7-0.5-1.1-0.2l-3.1,2
		C362.7,393.6,362.6,394.1,362.8,394.4L362.8,394.4z"/>
	<path d="M368.4,390.6l2,2.8c0.2,0.3,0.7,0.4,1.1,0.2l2.9-2c0.3-0.2,0.4-0.7,0.2-1.1l-1.8-2.8c-0.2-0.4-0.7-0.5-1.1-0.2l-3.1,2
		C368.3,389.7,368.2,390.2,368.4,390.6L368.4,390.6z"/>
	<path d="M374.1,386.7l2,2.8c0.2,0.3,0.7,0.4,1.1,0.2l2.9-2c0.3-0.2,0.4-0.7,0.2-1.1l-1.8-2.8c-0.2-0.3-0.7-0.4-1.1-0.2l-3.1,1.9
		C373.9,385.8,373.8,386.3,374.1,386.7C374,386.6,374.1,386.7,374.1,386.7z"/>
	<path d="M379.4,382.4l2.5,3.5c0.1,0.2,0.3,0.2,0.5,0.1l0,0l3.6-2.4c0.2-0.1,0.2-0.3,0.1-0.5l-2.3-3.5c-0.1-0.2-0.3-0.2-0.5-0.1l0,0
		l-3.8,2.4C379.3,382,379.3,382.2,379.4,382.4L379.4,382.4z"/>
	<path d="M384.4,379l2.5,3.5c0.1,0.2,0.3,0.2,0.5,0.1l3.6-2.4c0.2-0.1,0.2-0.3,0.1-0.5l-2.3-3.5c-0.1-0.2-0.3-0.2-0.5-0.1l-3.8,2.4
		C384.3,378.5,384.3,378.8,384.4,379L384.4,379z"/>
	<path d="M390,375.2l2.5,3.5c0.1,0.2,0.3,0.2,0.5,0.1l3.6-2.4c0.2-0.1,0.2-0.3,0.1-0.5l-2.3-3.5c-0.1-0.2-0.3-0.2-0.5-0.1l-3.8,2.4
		C389.9,374.7,389.8,374.9,390,375.2C389.9,375.1,389.9,375.1,390,375.2z"/>
	<path d="M395.4,371.4l2.5,3.5c0.1,0.2,0.3,0.2,0.5,0.1l0,0l3.6-2.4c0.2-0.1,0.2-0.3,0.1-0.5l-2.3-3.5c-0.1-0.2-0.3-0.2-0.5-0.1l0,0
		l-3.8,2.4C395.3,371,395.2,371.2,395.4,371.4C395.3,371.4,395.3,371.4,395.4,371.4z"/>
	<path d="M397.1,362.3l2.5,3.5c0.1,0.2,0.3,0.2,0.5,0.1l3.6-2.4c0.2-0.1,0.2-0.3,0.1-0.5l0,0l-2.3-3.5c-0.1-0.2-0.3-0.2-0.5-0.1
		l-3.8,2.4C397,361.9,396.9,362.1,397.1,362.3C397,362.3,397,362.3,397.1,362.3z"/>
	<path d="M402.4,358.6l2.5,3.5c0.1,0.2,0.3,0.2,0.5,0.1l0,0l3.6-2.4c0.2-0.1,0.2-0.3,0.1-0.5l0,0l-2.3-3.5c-0.1-0.2-0.3-0.2-0.5-0.1
		l-3.8,2.4C402.4,358.2,402.3,358.4,402.4,358.6L402.4,358.6z"/>
	<path d="M394,380.9l2.4,3.3c0.2,0.2,0.5,0.3,0.7,0.1l3.4-2.3c0.2-0.1,0.3-0.4,0.1-0.7l0,0l-2.1-3.3c-0.1-0.2-0.4-0.3-0.6-0.2l0,0
		l-3.6,2.3C393.9,380.4,393.8,380.7,394,380.9L394,380.9z"/>
	<path d="M399.4,377.2l2.3,3.3c0.1,0.2,0.4,0.3,0.7,0.1l0,0l3.4-2.3c0.2-0.1,0.3-0.4,0.1-0.7l0,0l-2.1-3.3c-0.1-0.2-0.4-0.3-0.7-0.1
		l-3.6,2.3C399.3,376.6,399.2,376.9,399.4,377.2C399.3,377.2,399.4,377.2,399.4,377.2z"/>
	<path d="M404.8,373.5l2.3,3.3c0.2,0.2,0.5,0.3,0.7,0.1l3.4-2.3c0.2-0.1,0.3-0.4,0.1-0.7l0,0l-2.1-3.3c-0.1-0.2-0.4-0.3-0.6-0.2l0,0
		l-3.6,2.3C404.7,372.9,404.6,373.2,404.8,373.5L404.8,373.5z"/>
	<path d="M410.1,369.6l2.5,3.5c0.1,0.2,0.3,0.2,0.5,0.1l3.6-2.4c0.2-0.1,0.2-0.3,0.1-0.5l-2.3-3.5c-0.1-0.2-0.3-0.2-0.5-0.1
		l-3.8,2.4C410,369.2,409.9,369.4,410.1,369.6C410,369.6,410.1,369.6,410.1,369.6z"/>
	<path d="M346.3,406l2.1,3c0.2,0.3,0.7,0.4,1.1,0.2l8.3-5.8c0.3-0.2,0.4-0.7,0.2-1.1l-2-3.1c-0.2-0.4-0.7-0.5-1.1-0.2l0,0l-8.5,5.9
		C346.1,405.2,346.1,405.7,346.3,406z"/>
	<path d="M400.8,367.8l2.6,3.7c0.1,0.2,0.3,0.2,0.5,0.1l0,0l9-6.3c0.2-0.1,0.2-0.3,0.1-0.5l-2.5-3.8c-0.1-0.2-0.3-0.2-0.5-0.1l0,0
		l-9.2,6.4C400.7,367.4,400.6,367.6,400.8,367.8z"/>
	<path d="M372.1,396.1l2.4,3.5c0.1,0.2,0.3,0.2,0.5,0.1l20-13.5c0.2-0.1,0.2-0.3,0.1-0.5l-2.5-3.8c-0.1-0.2-0.3-0.2-0.5-0.1l0,0
		l-19.9,13.7C372.1,395.7,372,395.9,372.1,396.1L372.1,396.1z"/>
</g>
<path class="st15" d="M338.6,395.3l2,2.8c0.2,0.3,0.7,0.4,1.1,0.2l2.9-2c0.3-0.2,0.4-0.7,0.2-1.1l-1.8-2.8c-0.2-0.4-0.7-0.5-1.1-0.2
	l-3.1,2C338.5,394.4,338.4,394.9,338.6,395.3L338.6,395.3z"/>
<path class="st15" d="M343.9,391.6l2,2.8c0.2,0.3,0.7,0.4,1.1,0.2l2.9-2c0.3-0.2,0.4-0.7,0.2-1.1l-1.8-2.8c-0.2-0.4-0.7-0.5-1.1-0.2
	l-3.1,1.9C343.8,390.8,343.7,391.2,343.9,391.6L343.9,391.6z"/>
<path class="st15" d="M349.4,387.8l2,2.8c0.2,0.3,0.7,0.4,1.1,0.2l2.9-2c0.3-0.2,0.4-0.7,0.2-1.1l-1.8-2.8c-0.2-0.3-0.7-0.4-1.1-0.2
	l-3.1,1.9C349.3,386.9,349.2,387.4,349.4,387.8L349.4,387.8z"/>
<path class="st15" d="M355.1,383.9l2,2.8c0.2,0.3,0.7,0.4,1.1,0.2l2.9-2c0.4-0.2,0.5-0.7,0.2-1.1l0,0l-1.8-2.8
	c-0.2-0.4-0.7-0.5-1.1-0.2l-3.1,2C354.9,383,354.8,383.5,355.1,383.9L355.1,383.9z"/>
<path class="st15" d="M360.7,380l2,2.8c0.2,0.3,0.7,0.4,1.1,0.2l2.9-2c0.3-0.2,0.4-0.7,0.2-1.1l-1.8-2.8c-0.2-0.4-0.7-0.5-1.1-0.2
	l-3.1,2C360.5,379.1,360.4,379.6,360.7,380L360.7,380z"/>
<path class="st15" d="M366.1,375.8l2.5,3.5c0.1,0.2,0.3,0.2,0.5,0.1l0,0l3.6-2.4c0.2-0.1,0.2-0.3,0.1-0.5l0,0l-2.3-3.5
	c-0.1-0.2-0.3-0.2-0.5-0.1l-3.8,2.4C366,375.3,365.9,375.5,366.1,375.8C366,375.7,366,375.7,366.1,375.8z"/>
<path class="st15" d="M371.7,371.9l2.5,3.5c0.1,0.2,0.3,0.2,0.5,0.1l0,0l3.6-2.4c0.2-0.1,0.2-0.3,0.1-0.5l0,0l-2.3-3.5
	c-0.1-0.2-0.3-0.2-0.5-0.1l0,0l-3.8,2.4C371.6,371.4,371.5,371.7,371.7,371.9C371.6,371.9,371.7,371.9,371.7,371.9z"/>
<path class="st15" d="M376.6,368.4l2.5,3.5c0.1,0.2,0.3,0.2,0.5,0.1l3.6-2.4c0.2-0.1,0.2-0.3,0.1-0.5l-2.3-3.5
	c-0.1-0.2-0.3-0.2-0.5-0.1l-3.8,2.4C376.6,368,376.5,368.3,376.6,368.4L376.6,368.4z"/>
<path class="st15" d="M382.2,364.6l2.5,3.5c0.1,0.2,0.3,0.2,0.5,0.1l3.6-2.4c0.2-0.1,0.2-0.3,0.1-0.5l0,0l-2.3-3.5
	c-0.1-0.2-0.3-0.2-0.5-0.1l-3.8,2.4C382.1,364.1,382.1,364.3,382.2,364.6C382.2,364.5,382.2,364.6,382.2,364.6z"/>
<path class="st15" d="M387.6,360.8l2.5,3.5c0.1,0.2,0.3,0.2,0.5,0.1l0,0l3.6-2.4c0.2-0.1,0.2-0.3,0.1-0.5l0,0L392,358
	c-0.1-0.2-0.3-0.2-0.5-0.1l0,0l-3.8,2.4C387.5,360.4,387.5,360.6,387.6,360.8L387.6,360.8z"/>
<path class="st15" d="M393,357.1l2.5,3.5c0.1,0.2,0.3,0.2,0.5,0.1l3.6-2.4c0.2-0.1,0.2-0.3,0.1-0.5l-2.3-3.5
	c-0.1-0.2-0.3-0.2-0.5-0.1l-3.8,2.4C392.9,356.7,392.9,356.9,393,357.1L393,357.1z"/>
<path class="st15" d="M398.4,353.4l2.5,3.5c0.1,0.2,0.3,0.2,0.5,0.1l0,0l3.6-2.4c0.2-0.1,0.2-0.3,0.1-0.5l0,0l-2.3-3.5
	c-0.1-0.2-0.3-0.2-0.5-0.1l0,0l-3.8,2.4C398.3,352.9,398.2,353.2,398.4,353.4L398.4,353.4z"/>
<path class="st15" d="M342.2,400.4l2,2.8c0.2,0.3,0.7,0.4,1.1,0.2l2.9-2c0.3-0.2,0.4-0.7,0.2-1.1l-1.8-2.8c-0.2-0.4-0.7-0.5-1.1-0.2
	l-3.1,2C342,399.5,341.9,400,342.2,400.4L342.2,400.4z"/>
<path class="st15" d="M349.9,411.6l2,2.8c0.2,0.3,0.7,0.4,1.1,0.2l2.9-2c0.3-0.2,0.4-0.7,0.2-1.1l-1.8-2.8c-0.2-0.3-0.7-0.5-1.1-0.2
	l-3.1,1.9C349.8,410.8,349.7,411.2,349.9,411.6L349.9,411.6z"/>
<path class="st15" d="M347.5,396.7l2,2.8c0.2,0.3,0.7,0.4,1.1,0.2l2.9-2c0.3-0.2,0.4-0.7,0.2-1.1l-1.8-2.8c-0.2-0.3-0.7-0.5-1.1-0.2
	l-3.1,1.9C347.3,395.9,347.2,396.4,347.5,396.7z"/>
<path class="st15" d="M353,392.9l2,2.8c0.2,0.3,0.7,0.4,1.1,0.2l2.9-2c0.3-0.2,0.4-0.7,0.2-1.1l-1.8-2.8c-0.2-0.3-0.7-0.4-1.1-0.2
	l-3.1,1.9C352.8,392.1,352.8,392.5,353,392.9L353,392.9z"/>
<path class="st15" d="M358.6,389l2,2.8c0.2,0.3,0.7,0.4,1.1,0.2l2.9-2c0.3-0.2,0.4-0.7,0.2-1.1l-1.8-2.8c-0.2-0.4-0.7-0.5-1.1-0.2
	l-3.1,2C358.5,388.2,358.4,388.7,358.6,389L358.6,389z"/>
<path class="st15" d="M355.1,407.8l2,2.8c0.2,0.3,0.7,0.4,1.1,0.2l2.9-2c0.3-0.2,0.4-0.7,0.2-1.1l-1.8-2.8c-0.2-0.3-0.7-0.4-1.1-0.2
	l-3.1,1.9C355,406.9,354.9,407.4,355.1,407.8z"/>
<path class="st15" d="M360.6,403.9l2,2.8c0.2,0.3,0.7,0.4,1.1,0.2l2.9-2c0.3-0.2,0.4-0.7,0.2-1.1L365,401c-0.2-0.4-0.7-0.5-1.1-0.2
	l-3.1,2C360.5,403.1,360.4,403.6,360.6,403.9L360.6,403.9z"/>
<path class="st15" d="M366.3,400.1l2,2.8c0.2,0.3,0.7,0.4,1.1,0.2l2.9-2c0.3-0.2,0.4-0.7,0.2-1.1l-1.8-2.8c-0.2-0.4-0.7-0.5-1.1-0.2
	l-3.1,2C366.1,399.2,366,399.7,366.3,400.1C366.3,400,366.3,400,366.3,400.1z"/>
<path class="st15" d="M364.2,385.1l2,2.8c0.2,0.3,0.7,0.4,1.1,0.2l2.9-2c0.3-0.2,0.4-0.7,0.2-1.1l-1.8-2.8c-0.2-0.3-0.7-0.4-1.1-0.2
	l-3.1,2C364.1,384.3,364,384.8,364.2,385.1z"/>
<path class="st15" d="M369.9,381.2l2,2.8c0.2,0.3,0.7,0.4,1.1,0.2l2.9-2c0.3-0.2,0.4-0.7,0.2-1.1l-1.8-2.8c-0.2-0.4-0.7-0.5-1.1-0.2
	l-3.1,1.9C369.7,380.3,369.6,380.8,369.9,381.2C369.8,381.2,369.8,381.2,369.9,381.2z"/>
<path class="st15" d="M375.2,377l2.5,3.5c0.1,0.2,0.3,0.2,0.5,0.1l0,0l3.6-2.4c0.2-0.1,0.2-0.3,0.1-0.5l0,0l-2.3-3.5
	c-0.1-0.2-0.3-0.2-0.5-0.1l0,0l-3.8,2.4C375.1,376.6,375.1,376.8,375.2,377L375.2,377z"/>
<path class="st15" d="M380.2,373.6l2.5,3.5c0.1,0.2,0.3,0.2,0.5,0.1l3.6-2.4c0.2-0.1,0.2-0.3,0.1-0.5l-2.3-3.5
	c-0.1-0.2-0.3-0.2-0.5-0.1l-3.8,2.4C380.1,373.1,380.1,373.3,380.2,373.6C380.2,373.5,380.2,373.6,380.2,373.6z"/>
<path class="st15" d="M385.8,369.7l2.5,3.5c0.1,0.2,0.3,0.2,0.5,0.1l3.6-2.4c0.2-0.1,0.2-0.3,0.1-0.5l-2.3-3.5
	c-0.1-0.2-0.3-0.2-0.5-0.1l-3.8,2.4C385.7,369.2,385.6,369.5,385.8,369.7C385.7,369.7,385.7,369.7,385.8,369.7z"/>
<path class="st15" d="M391.1,366l2.4,3.5c0.1,0.2,0.3,0.2,0.5,0.1l0,0l3.6-2.4c0.2-0.1,0.2-0.3,0.1-0.5l-2.3-3.5
	c-0.1-0.2-0.3-0.2-0.5-0.1l-3.8,2.4C391.1,365.5,391,365.8,391.1,366C391.1,365.9,391.1,366,391.1,366z"/>
<path class="st15" d="M356.7,398.2l2,2.8c0.2,0.3,0.7,0.4,1.1,0.2l2.9-2c0.3-0.2,0.4-0.7,0.2-1.1l-1.8-2.8c-0.2-0.3-0.7-0.4-1.1-0.2
	l-3.1,1.9C356.6,397.4,356.5,397.9,356.7,398.2L356.7,398.2z"/>
<path class="st15" d="M362.3,394.4l2,2.8c0.2,0.3,0.7,0.4,1.1,0.2l2.9-2c0.3-0.2,0.4-0.7,0.2-1.1l-1.8-2.8c-0.2-0.3-0.7-0.4-1.1-0.2
	l-3.1,2C362.2,393.5,362.1,394,362.3,394.4L362.3,394.4z"/>
<path class="st15" d="M367.9,390.5l2,2.8c0.2,0.3,0.7,0.4,1.1,0.2l2.9-2c0.3-0.2,0.4-0.7,0.2-1.1l-1.8-2.8c-0.2-0.4-0.7-0.5-1.1-0.2
	l-3.1,1.9C367.8,389.6,367.7,390.1,367.9,390.5L367.9,390.5z"/>
<path class="st15" d="M373.5,386.6l2,2.8c0.2,0.3,0.7,0.4,1.1,0.2l2.9-2c0.3-0.2,0.4-0.7,0.2-1.1l-1.8-2.8c-0.2-0.3-0.7-0.4-1.1-0.2
	l-3.1,1.9C373.4,385.7,373.3,386.2,373.5,386.6L373.5,386.6z"/>
<path class="st15" d="M378.9,382.3l2.5,3.5c0.1,0.2,0.3,0.2,0.5,0.1l0,0l3.6-2.4c0.2-0.1,0.2-0.3,0.1-0.5l-2.3-3.5
	c-0.1-0.2-0.3-0.2-0.5-0.1l0,0l-3.8,2.4C378.8,381.9,378.8,382.1,378.9,382.3L378.9,382.3z"/>
<path class="st15" d="M383.9,378.9l2.5,3.5c0.1,0.2,0.3,0.2,0.5,0.1l0,0l3.6-2.4c0.2-0.1,0.2-0.3,0.1-0.5l-2.3-3.5
	c-0.1-0.2-0.3-0.2-0.5-0.1l-3.8,2.4C383.8,378.5,383.7,378.7,383.9,378.9L383.9,378.9z"/>
<path class="st15" d="M389.4,375l2.5,3.5c0.1,0.2,0.3,0.2,0.5,0.1l3.6-2.4c0.2-0.1,0.2-0.3,0.1-0.5l-2.3-3.5
	c-0.1-0.2-0.3-0.2-0.5-0.1l-3.8,2.4C389.4,374.6,389.3,374.8,389.4,375L389.4,375z"/>
<path class="st15" d="M394.8,371.3l2.5,3.5c0.1,0.2,0.3,0.2,0.5,0.1l0,0l3.6-2.4c0.2-0.1,0.2-0.3,0.1-0.5l0,0l-2.3-3.5
	c-0.1-0.2-0.3-0.2-0.5-0.1l0,0l-3.8,2.4C394.8,370.9,394.7,371.1,394.8,371.3L394.8,371.3z"/>
<path class="st15" d="M396.5,362.2l2.5,3.5c0.1,0.2,0.3,0.2,0.5,0.1l3.6-2.4c0.2-0.1,0.2-0.3,0.1-0.5l-2.3-3.5
	c-0.1-0.2-0.3-0.2-0.5-0.1l-3.8,2.4C396.5,361.8,396.4,362,396.5,362.2L396.5,362.2z"/>
<path class="st15" d="M401.9,358.5l2.5,3.5c0.1,0.2,0.3,0.2,0.5,0.1l0,0l3.6-2.4c0.2-0.1,0.2-0.3,0.1-0.5l-2.3-3.5
	c-0.1-0.2-0.3-0.2-0.5-0.1l0,0L402,358C401.9,358.1,401.8,358.3,401.9,358.5L401.9,358.5z"/>
<path class="st15" d="M393.5,380.8l2.3,3.3c0.2,0.2,0.5,0.3,0.7,0.1l3.4-2.3c0.2-0.1,0.3-0.4,0.1-0.7l-2.1-3.3
	c-0.1-0.2-0.4-0.3-0.7-0.1l-3.6,2.3C393.4,380.3,393.3,380.6,393.5,380.8L393.5,380.8z"/>
<path class="st15" d="M398.9,377.1l2.3,3.3c0.1,0.2,0.4,0.3,0.7,0.1l0,0l3.4-2.3c0.2-0.1,0.3-0.4,0.1-0.7l-2.1-3.3
	c-0.1-0.2-0.4-0.3-0.7-0.1l-3.6,2.3C398.8,376.6,398.7,376.9,398.9,377.1L398.9,377.1z"/>
<path class="st15" d="M404.2,373.4l2.4,3.3c0.2,0.2,0.4,0.3,0.7,0.1l3.4-2.3c0.2-0.1,0.3-0.4,0.1-0.7l-2.1-3.3
	c-0.1-0.2-0.4-0.3-0.7-0.1l-3.6,2.3C404.2,372.8,404.1,373.1,404.2,373.4L404.2,373.4z"/>
<path class="st15" d="M409.6,369.5l2.5,3.5c0.1,0.2,0.3,0.2,0.5,0.1l3.6-2.4c0.2-0.1,0.2-0.3,0.1-0.5l-2.3-3.5
	c-0.1-0.2-0.3-0.2-0.5-0.1l-3.8,2.4C409.5,369.1,409.4,369.3,409.6,369.5C409.5,369.5,409.5,369.5,409.6,369.5z"/>
<path class="st15" d="M345.8,405.9l2.1,3c0.2,0.3,0.7,0.4,1.1,0.2l8.4-5.8c0.3-0.2,0.4-0.7,0.2-1.1l-2-3.1c-0.2-0.4-0.7-0.5-1.1-0.2
	l0,0l-8.5,5.9C345.6,405.1,345.5,405.5,345.8,405.9z"/>
<path class="st15" d="M400.2,367.7l2.6,3.7c0.1,0.2,0.3,0.2,0.5,0.1l0,0l9-6.3c0.2-0.1,0.2-0.3,0.1-0.5l-2.5-3.8
	c-0.1-0.2-0.3-0.2-0.5-0.1l0,0l-9.2,6.4C400.2,367.3,400.1,367.5,400.2,367.7z"/>
<path class="st15" d="M371.6,396l2.4,3.5c0.1,0.2,0.3,0.2,0.5,0.1l20-13.5c0.2-0.1,0.2-0.3,0.1-0.5l0,0l-2.5-3.8
	c-0.1-0.2-0.3-0.2-0.5-0.1l0,0l-19.9,13.7C371.5,395.6,371.5,395.8,371.6,396z"/>
<path class="st8" d="M371.5,408l10.6,15.4c0.6,0.9,1.8,1.1,2.7,0.5l29.3-19.6c0.9-0.6,1.1-1.8,0.5-2.7l0,0l-10.8-15.9
	c-0.6-0.9-1.8-1.1-2.7-0.5l0,0L372,405.3C371.1,405.9,370.9,407.1,371.5,408L371.5,408z"/>
<path class="st17" d="M371,407.9l10.6,15.4c0.6,0.9,1.8,1.1,2.7,0.5l29.2-19.7c0.9-0.6,1.2-1.8,0.5-2.7l0,0l-10.8-15.9
	c-0.6-0.9-1.8-1.1-2.7-0.5l0,0l-29.1,20.1C370.6,405.8,370.4,407,371,407.9L371,407.9z"/>
<path class="st12" d="M305.1,383l22.5,7.5l72.3-50.2l-22.4-7.3c-1.2-0.4-2.6-0.2-3.6,0.5l-69,48c-0.4,0.2-0.5,0.7-0.3,1.1
	C304.8,382.8,304.9,382.9,305.1,383z"/>
</svg>
