<?xml version="1.0" encoding="utf-8"?>
<!-- Generator: Adobe Illustrator 23.1.0, SVG Export Plug-In . SVG Version: 6.00 Build 0)  -->
<svg version="1.1" id="Layer_1" xmlns="http://www.w3.org/2000/svg" xmlns:xlink="http://www.w3.org/1999/xlink" x="0px" y="0px"
	 viewBox="0 0 874.5 747.9" style="enable-background:new 0 0 874.5 747.9;" xml:space="preserve">
<style type="text/css">
	.st0{opacity:0.31;}
	.st1{fill:none;stroke:#FAD258;stroke-width:2;stroke-miterlimit:10;}
	.st2{opacity:0.31;fill:none;stroke:#FAD258;stroke-width:2;stroke-miterlimit:10;}
	.st3{opacity:0.31;fill:none;stroke:#FAD258;stroke-width:2;stroke-miterlimit:10;enable-background:new    ;}
	.st4{opacity:0.5;}
	.st5{opacity:0.1;fill:none;stroke:#FAD258;stroke-width:2;stroke-miterlimit:10;enable-background:new    ;}
	.st6{fill:none;stroke:#FAD258;stroke-width:4;stroke-miterlimit:10;}
	.st7{fill:#FAD258;}
</style>
<title>hiring</title>
<g class="st0">
	<polygon class="st1" points="401.1,541.3 482.8,0 874.5,59.1 792.9,600.4 	"/>
</g>
<rect x="370.5" y="105.2" transform="matrix(0.1492 -0.9888 0.9888 0.1492 248.0988 884.7664)" class="st2" width="535.3" height="386.1"/>
<rect x="631.5" y="131.7" transform="matrix(0.1492 -0.9888 0.9888 0.1492 276.4378 863.4193)" class="st2" width="16.9" height="278.7"/>
<rect x="625.1" y="173.5" transform="matrix(0.1492 -0.9888 0.9888 0.1492 229.7366 892.6048)" class="st2" width="16.9" height="278.6"/>
<rect x="718.4" y="75.8" transform="matrix(0.1492 -0.9888 0.9888 0.1492 472.44 844.2439)" class="st2" width="16.9" height="143.5"/>
<rect x="712.1" y="130.2" transform="matrix(0.1492 -0.9888 0.9888 0.1492 425.7887 873.5457)" class="st2" width="16.9" height="118.2"/>
<rect x="602.1" y="229.6" transform="matrix(0.1492 -0.9888 0.9888 0.1492 171.3902 903.2602)" class="st2" width="16.9" height="244.9"/>
<rect x="579.2" y="285.7" transform="matrix(0.1492 -0.9888 0.9888 0.1492 113.0808 913.9624)" class="st2" width="16.9" height="211.1"/>
<rect x="560.4" y="338.3" transform="matrix(0.1492 -0.9888 0.9888 0.1492 57.5645 929.309)" class="st2" width="16.9" height="185.8"/>
<rect x="579.1" y="358.5" transform="matrix(0.1492 -0.9888 0.9888 0.1492 28.5341 986.5174)" class="st2" width="16.9" height="236.4"/>
<rect x="501.8" y="461.3" transform="matrix(0.1492 -0.9888 0.9888 0.1492 -67.9207 936.5652)" class="st2" width="16.9" height="92.9"/>
<g class="st0">
	<path class="st1" d="M630.2,151.5c4.6-30.8-16.6-59.5-47.3-64.1c-30.8-4.6-59.5,16.6-64.1,47.3c-2.8,18.6,3.8,37.3,17.7,50
		c0,0.1,0,0.2,0,0.3c1.6,2,3.5,3.7,5.7,5l0.1-0.2c2.3,2.6,12.7,7.9,25.3,9.7h0.3c8,1.2,16.9,1.1,25.1-1.9c0,0,0.1-0.1,0.2-0.4
		c2.1-0.6,4-1.6,5.8-2.8l0.2-0.6C615.9,185.6,627.5,169.8,630.2,151.5z"/>
</g>
<circle class="st2" cx="574.2" cy="141" r="54.7"/>
<path class="st2" d="M549.3,159.1c0,0-13-0.9-13.2,23.1c1.5,2,3.4,3.6,5.5,4.8l10.9-23.4L549.3,159.1z"/>
<path class="st2" d="M591.1,165.4c0,0,12.7,3,5.8,25.9c-2,1.4-4.3,2.5-6.7,3l-3.5-25.6L591.1,165.4z"/>
<path class="st2" d="M555.7,120.7c0,0-8.8,16.9-11.9,14.7c0,0,28.1,32.7,60.8,9.2c-2.5-6.4-5.8-12.4-9.8-18L555.7,120.7z"/>
<ellipse transform="matrix(0.1492 -0.9888 0.9888 0.1492 369.8984 674.186)" class="st2" cx="576.7" cy="122.1" rx="24.2" ry="24.2"/>
<path class="st3" d="M590.9,165.3l-41.8-6.3l-6.4,16.1c0,0-3.5,7.4-1.1,11.2s27.8,15.6,49,8c2.4-4.2,3.3-9.1,2.7-13.9
	c-1-8.1-0.5-0.6-0.5-0.6L590.9,165.3z"/>
<path class="st3" d="M591.4,165.4l-41.8-6.3l-6.4,16.1c0,0-3.5,7.4-1.1,11.2s27.8,15.6,49,8c2.4-4.2,3.3-9.1,2.7-13.9
	c-1-8.1-0.5-0.6-0.5-0.6L591.4,165.4z"/>
<path class="st2" d="M591.1,165.4l-41.8-6.3l-6.4,16.1c0,0-3.5,7.4-1.1,11.2s27.8,15.6,49,8c2.4-4.2,3.3-9.1,2.7-13.9
	c-1-8.1-0.5-0.6-0.5-0.6L591.1,165.4z"/>
<path class="st3" d="M564.2,147.2l16.7,2.5l0,0l-2.3,15.1c-0.6,3.7-4,6.2-7.7,5.7l-3.4-0.5c-3.7-0.6-6.2-4-5.7-7.7L564.2,147.2
	L564.2,147.2z"/>
<path class="st2" d="M564.3,146.5L581,149l0,0l-2.3,15.1c-0.6,3.7-4,6.2-7.7,5.7l-3.4-0.5c-3.7-0.6-6.2-4-5.7-7.7L564.3,146.5
	L564.3,146.5z"/>
<path class="st3" d="M564,148.9c5.1,2.8,11,3.7,16.7,2.6l0.3-2.1l-16.7-2.5L564,148.9z"/>
<ellipse class="st2" cx="575.9" cy="127.4" rx="24.2" ry="24.2"/>
<path class="st2" d="M554.3,114.8l45.7,6.9c0,0-1.1-19-18.6-20.5S554.3,114.8,554.3,114.8z"/>
<ellipse transform="matrix(0.1492 -0.9888 0.9888 0.1492 348.7577 650.8572)" class="st2" cx="552.6" cy="122.8" rx="4.2" ry="2.3"/>
<ellipse transform="matrix(0.1492 -0.9888 0.9888 0.1492 381.606 703.2076)" class="st2" cx="599.4" cy="129.9" rx="4.2" ry="2.3"/>
<path class="st3" d="M554.2,115.4l45.7,6.9c0,0-1.1-19-18.6-20.5S554.2,115.4,554.2,115.4z"/>
<g class="st0">
	<polygon class="st1" points="0.3,141.2 392.5,77.8 480.1,619.7 87.9,683.1 	"/>
</g>
<rect x="46.4" y="108.7" transform="matrix(0.9868 -0.1618 0.1618 0.9868 -57.7362 43.7047)" class="st2" width="386.1" height="535.3"/>
<rect x="93.5" y="341.5" transform="matrix(0.9868 -0.1618 0.1618 0.9868 -53.5541 42.2804)" class="st2" width="278.6" height="16.9"/>
<rect x="100.3" y="383.1" transform="matrix(0.9868 -0.1618 0.1618 0.9868 -60.1964 43.9274)" class="st2" width="278.6" height="16.9"/>
<rect x="205.9" y="197.2" transform="matrix(0.9868 -0.1618 0.1618 0.9868 -29.6147 47.6337)" class="st2" width="143.5" height="16.9"/>
<rect x="225.4" y="238.9" transform="matrix(0.9868 -0.1618 0.1618 0.9868 -36.2706 49.2924)" class="st2" width="118.2" height="16.9"/>
<rect x="107.4" y="427.5" transform="matrix(0.9868 -0.1618 0.1618 0.9868 -67.5066 42.9348)" class="st2" width="244.9" height="16.9"/>
<rect x="114.5" y="471.9" transform="matrix(0.9868 -0.1618 0.1618 0.9868 -74.8186 41.9345)" class="st2" width="211.1" height="16.9"/>
<rect x="121.5" y="515.6" transform="matrix(0.9868 -0.1618 0.1618 0.9868 -81.9633 41.5958)" class="st2" width="185.8" height="16.9"/>
<rect x="127.9" y="553.2" transform="matrix(0.9868 -0.1618 0.1618 0.9868 -87.6323 47.222)" class="st2" width="236.4" height="16.9"/>
<rect x="135.7" y="606.5" transform="matrix(0.9868 -0.1618 0.1618 0.9868 -97.0979 37.5778)" class="st2" width="92.9" height="16.9"/>
<g class="st0">
	<path class="st1" d="M192,235.5c-5.2-31.6-35-53-66.6-47.8s-53,35-47.8,66.6c3.1,19,15.5,35.3,33.1,43.3l0.1,0.3
		c2.2,1.5,4.6,2.5,7.2,3.1v-0.3c3,1.9,14.9,3.7,27.9,1.5h0.3c8.2-1.3,16.9-4.3,24-9.8c0,0,0-0.2,0.1-0.5c1.8-1.3,3.5-2.8,4.8-4.6
		c0-0.2,0-0.4,0-0.7C188.8,273.4,195.1,254.3,192,235.5z"/>
</g>
<circle class="st2" cx="134.9" cy="244.8" r="56.2"/>
<path class="st2" d="M114.4,270.5c0,0-13,3.3-5.6,26.8c2.1,1.5,4.5,2.5,7,3l3.3-26.4L114.4,270.5z"/>
<path class="st2" d="M157.3,263.4c0,0,13.4-1.1,13.8,23.6c-1.5,2-3.4,3.7-5.6,5l-11.6-23.9L157.3,263.4z"/>
<circle class="st2" cx="129.5" cy="225.7" r="24.9"/>
<path class="st2" d="M157.1,263.5l-42.9,7l-1.2,17.8c0,0-1,8.3,2.5,11.3s32.1,6.5,50.4-7.7c1-4.9,0.4-9.9-1.8-14.4
	c-3.6-7.6-0.7-0.5-0.7-0.5L157.1,263.5z"/>
<path class="st2" d="M157.6,263.4l-42.9,7l-1.2,17.8c0,0-1,8.3,2.5,11.3s32.1,6.5,50.4-7.7c1-4.9,0.4-9.9-1.8-14.4
	c-3.6-7.6-0.7-0.5-0.7-0.5L157.6,263.4z"/>
<path class="st2" d="M157.3,263.4l-42.9,7l-1.2,17.8c0,0-1,8.3,2.5,11.3s32.1,6.5,50.4-7.7c1-4.9,0.4-9.9-1.8-14.4
	c-3.6-7.6-0.7-0.5-0.7-0.5L157.3,263.4z"/>
<path class="st3" d="M125.3,254.1l17.2-2.8l0,0l2.6,15.7c0.6,3.7-1.9,7.1-5.6,7.7l0,0l-3.9,0.6c-3.7,0.6-7.1-1.9-7.7-5.6l0,0
	L125.3,254.1L125.3,254.1z"/>
<path class="st2" d="M125.2,253.4l17.2-2.8l0,0l2.6,15.7c0.6,3.7-1.9,7.1-5.6,7.7l0,0l-3.9,0.6c-3.7,0.6-7.1-1.9-7.7-5.6l0,0
	L125.2,253.4L125.2,253.4z"/>
<path class="st3" d="M125.6,255.9c5.9,1.2,12,0.2,17.2-2.8l-0.4-2.1l-17.1,2.8L125.6,255.9z"/>
<circle class="st2" cx="130.4" cy="231" r="24.9"/>
<path class="st3" d="M105.4,226.2l46.9-7.7c0,0-7.1-18.3-24.6-14.2S105.4,226.2,105.4,226.2z"/>
<path class="st2" d="M105.3,225.6l46.9-7.7c0,0-7.1-18.3-24.6-14.2S105.3,225.6,105.3,225.6z"/>
<ellipse transform="matrix(0.9872 -0.1595 0.1595 0.9872 -36.1855 19.9831)" class="st2" cx="106.4" cy="235.4" rx="2.3" ry="4.4"/>
<ellipse transform="matrix(0.9868 -0.1618 0.1618 0.9868 -34.5522 27.9146)" class="st2" cx="154.1" cy="226.1" rx="2.3" ry="4.4"/>
<g>
	<g class="st4">
		<rect x="282.6" y="165.5" class="st1" width="396.2" height="547.4"/>
	</g>
	<rect x="287.7" y="169.5" class="st1" width="386.1" height="535.3"/>
	<g class="st4">
		<path class="st1" d="M339.2,292c0-32.7,26.5-59.2,59.2-59.2s59.2,26.5,59.2,59.2c0,19.7-9.8,38.2-26.2,49.2v0.3
			c-1.9,1.9-4.2,3.3-6.7,4.3l-0.1-0.3c-2.8,2.4-14.5,6.2-27.9,6.1h-0.3c-8.5,0-17.7-1.5-25.8-5.9c0,0-0.1-0.2-0.2-0.5
			c-2.1-1-3.9-2.3-5.6-3.8l-0.1-0.7C348.8,329.7,339.2,311.5,339.2,292z"/>
	</g>
	<circle class="st1" cx="398.5" cy="292" r="57.5"/>
	<path class="st1" d="M375.9,313.9c0,0-13.7,1.1-10.1,26.1c1.9,1.8,4.1,3.2,6.5,4.1L380,318L375.9,313.9z"/>
	<path class="st1" d="M420.3,313.9c0,0,13.7,1.1,10.1,26.1c-1.9,1.8-4.1,3.2-6.5,4.1l-7.7-26.1L420.3,313.9z"/>
	<path class="st1" d="M376.5,273c0,0-1,3.1-2.5,6.6c-3.3,7.8,0.5,37.6,8.3,40.8c8.8,3.6,20.3,5.9,32.2,1.5
		c10.4-3.8,13.6-37.7,6.3-46c-0.9-1-1.8-1.9-2.7-2.9H376.5z"/>
	<circle class="st1" cx="398.5" cy="271.2" r="25.5"/>
	<path class="st5" d="M420.1,313.9h-44.4l-4.2,17.8c0,0-2.4,8.2,0.6,11.9s31.3,11.9,52.1,0.6c1.8-4.7,2-9.9,0.6-14.8
		c-2.4-8.3-0.6-0.6-0.6-0.6L420.1,313.9z"/>
	<path class="st5" d="M420.7,313.9h-44.5l-4.2,17.8c0,0-2.4,8.2,0.6,11.9s31.3,11.9,52.1,0.6c1.8-4.7,2-9.9,0.6-14.8
		c-2.4-8.3-0.6-0.6-0.6-0.6L420.7,313.9z"/>
	<path class="st1" d="M420.3,313.9h-44.4l-4.2,17.8c0,0-2.4,8.2,0.6,11.9s31.3,11.9,52.1,0.6c1.8-4.7,2-9.9,0.6-14.8
		c-2.4-8.3-0.6-0.6-0.6-0.6L420.3,313.9z"/>
	<path class="st5" d="M389.5,299.1h17.8l0,0v16.4c0,3.7-3,6.7-6.7,6.7l0,0h-4.3c-3.7,0-6.7-3-6.7-6.7l0,0L389.5,299.1L389.5,299.1
		L389.5,299.1z"/>
	<path class="st1" d="M389.5,298.5h17.8l0,0v16.4c0,3.7-3,6.7-6.7,6.7l0,0h-4.3c-3.7,0-6.7-3-6.7-6.7l0,0L389.5,298.5L389.5,298.5
		L389.5,298.5z"/>
	<path class="st5" d="M389.6,301c5.7,2.1,12,2.1,17.8,0v-2.2h-17.8V301z"/>
	<circle class="st1" cx="398.5" cy="276.7" r="25.5"/>
	<path class="st1" d="M374.1,267.1h48.6c0,0-4.2-19.6-22.5-18.4S374.1,267.1,374.1,267.1z"/>
	<ellipse class="st1" cx="373.6" cy="275.6" rx="2.4" ry="4.4"/>
	<ellipse class="st1" cx="423.3" cy="275.6" rx="2.4" ry="4.4"/>
	<path class="st5" d="M374.1,267.7h48.6c0,0-4.2-19.6-22.5-18.4S374.1,267.7,374.1,267.7z"/>
	<rect x="339.1" y="401.6" class="st1" width="278.6" height="16.9"/>
	<rect x="339.1" y="443.8" class="st1" width="278.6" height="16.9"/>
	<rect x="474.3" y="266.5" class="st1" width="143.5" height="16.9"/>
	<rect x="486.9" y="308.7" class="st1" width="118.2" height="16.9"/>
	<rect x="339.1" y="486" class="st1" width="244.9" height="16.9"/>
	<rect x="339.1" y="528.3" class="st1" width="211.1" height="16.9"/>
	<rect x="339.1" y="570.5" class="st1" width="185.8" height="16.9"/>
	<rect x="339.1" y="612.7" class="st1" width="236.4" height="16.9"/>
	<rect x="339.1" y="654.9" class="st1" width="92.9" height="16.9"/>
</g>
<g class="st0">
	<circle class="st1" cx="652.1" cy="663.6" r="84.4"/>
</g>
<circle class="st6" cx="652.1" cy="663.6" r="79.4"/>
<polygon class="st7" points="617.6,653 647.4,680.3 689.6,618.2 704.5,630.6 647.4,705.1 605.2,657.9 "/>
</svg>
