<?xml version="1.0" encoding="utf-8"?>
<!-- Generator: Adobe Illustrator 23.1.0, SVG Export Plug-In . SVG Version: 6.00 Build 0)  -->
<svg version="1.1" id="Layer_1" xmlns="http://www.w3.org/2000/svg" xmlns:xlink="http://www.w3.org/1999/xlink" x="0px" y="0px"
	 viewBox="0 0 171 159.9" style="enable-background:new 0 0 171 159.9;" xml:space="preserve">
<style type="text/css">
	.st0{fill:#FCFCFC;stroke:#FFFFFF;stroke-miterlimit:10;}
</style>
<g>
	<path class="st0" d="M39.8,90c1.4-0.5,2.9-1,4.3-1.4c6.6-2.1,13.3-4.1,19.9-6.2c9.2-2.9,18.3-5.8,27.5-8.7
		c6.7-2.1,13.4-4.3,20.2-6.4c9.4-3,18.7-5.9,28.1-8.9c6.9-2.2,13.7-4.4,20.6-6.6c0.9-0.3,1.4-0.2,1.4,0.9c0,1.5,0.1,3.1-0.1,4.6
		c0,0.4-0.5,1.1-0.9,1.2c-6.2,2-12.4,3.9-18.6,5.8c-5.6,1.8-11.3,3.5-16.9,5.3c-10.6,3.3-21.1,6.6-31.7,10C89,81,84.5,82.5,80,84
		c-2.5,0.9-4.1,3.3-4.1,6c0,2.6,1.6,5,4.1,5.8c5.8,1.9,11.7,3.7,17.5,5.5c7.5,2.3,14.9,4.6,22.4,6.9c7.7,2.4,15.4,4.7,23.2,7
		c4.9,1.5,9.7,3,14.6,4.5c1.1,0.3,2.2,0.6,3.3,1c0.3,0.1,0.8,0.5,0.8,0.8c0.1,2,0,3.9,0,6.1c-40.8-12.4-81.4-24.8-122-37.2
		C39.9,90.2,39.9,90.1,39.8,90z"/>
	<path class="st0" d="M122.6,48.9c-2.3,0-4.6,0-6.8,0c-0.3,0-0.7-0.5-0.9-0.8C109,40,101.6,34,92.6,29.9c-5-2.3-10.3-3.7-15.9-4.3
		c-4.8-0.6-9.6-0.5-14.4,0.2c-7.5,1.1-14.6,3.7-21,7.8c-8.4,5.3-15,12.4-19.7,21.3c-2.9,5.6-4.9,11.5-5.7,17.7
		c-0.4,3.3-0.4,6.6-0.4,9.9c0.1,7.6,2.1,14.8,5.5,21.6c3.7,7.4,8.7,13.7,15.1,18.8c4.5,3.5,9.3,6.3,14.6,8.4
		c5.9,2.3,11.9,3.2,18.1,3.6c1.1,0.1,1.4,0.4,1.3,1.4c-0.1,1.3,0,2.7,0,4c0,0.8-0.3,1.1-1.1,1.1c-11.3-0.4-21.9-3.3-31.5-9.4
		c-9.5-6-16.8-14-22-24.1C13,102.3,11,96.6,10,90.6c-1.1-6.5-1.1-13-0.2-19.5c1-7.1,3.1-13.8,6.5-20.1c2.5-4.6,5.5-8.9,9.1-12.7
		c6.1-6.5,13.3-11.6,21.6-15c4.4-1.8,8.9-3.1,13.6-3.9c4.4-0.8,8.9-0.9,13.3-0.7c6,0.3,11.8,1.5,17.4,3.7c5.7,2.2,11,4.9,15.8,8.7
		c6.1,4.7,11.3,10.3,15.3,16.9c0.1,0.1,0.2,0.3,0.2,0.5C122.7,48.5,122.6,48.6,122.6,48.9z"/>
</g>
</svg>
